<!DOCTYPE svg PUBLIC "-//W3C//DTD SVG 1.1//EN" "http://www.w3.org/Graphics/SVG/1.1/DTD/svg11.dtd">
<!-- Uploaded to: SVG Repo, www.svgrepo.com, Transformed by: SVG Repo Mixer Tools -->
<svg version="1.1" id="Layer_1" xmlns="http://www.w3.org/2000/svg" xmlns:xlink="http://www.w3.org/1999/xlink" viewBox="0 0 512 512" xml:space="preserve" width="81px" height="81px" fill="#000000">
<g id="SVGRepo_bgCarrier" stroke-width="0"/>
<g id="SVGRepo_tracerCarrier" stroke-linecap="round" stroke-linejoin="round"/>
<g id="SVGRepo_iconCarrier"> <circle style="fill:#facc15;" cx="256" cy="256" r="256"/> <path style="fill:#FFB11F;" d="M270.969,511.553c117.455-6.773,213.669-92.72,236.084-205.283L302.511,104.405l-2.263,8.835 l-25.998-26.558l-57.073,54.248l51.366,49.648L165.8,406.387L270.969,511.553z"/> <path style="fill:#ba0021;" d="M320.215,222.396l-8.445-4.224c-8.125-4.062-17.175-7.818-25.774-10.83v-67.048h-59.992v67.048 c-8.601,3.012-17.648,6.768-25.772,10.83l-8.445,4.224c-19.675,9.838-35.771,35.883-35.771,57.88v99.987 c0,21.997,17.998,39.995,39.995,39.995h119.984c21.997,0,39.995-17.998,39.995-39.995v-99.987 C355.987,258.279,339.889,232.232,320.215,222.396z"/> <path style="fill:#ba0021;" d="M320.215,222.396l-8.445-4.222c-8.125-4.062-17.175-7.818-25.774-10.83v-67.05h-30.57v279.962h60.566 c21.997,0,39.995-17.998,39.995-39.995v-99.987C355.987,258.279,339.889,232.232,320.215,222.396z"/> <path style="fill:#94252C;" d="M231.76,102.624c0-13.388,10.852-24.24,24.24-24.24c13.388,0,24.24,10.852,24.24,24.24H231.76z"/> <path style="fill:#771821;" d="M256,78.386c-0.193,0-0.381,0.024-0.574,0.029v24.209h24.814 C280.24,89.238,269.388,78.386,256,78.386z"/> <path style="fill:#9A421C;" d="M298.22,102.624h-84.44c-3.948,0-6.846,3.71-5.887,7.54l6.965,27.857 c0.676,2.701,3.103,4.598,5.887,4.598h70.511c2.784,0,5.213-1.895,5.887-4.598l6.965-27.857 C305.066,106.336,302.168,102.624,298.22,102.624z"/> <path style="fill:#804000;" d="M298.22,102.624h-42.794v39.995h35.83c2.784,0,5.213-1.895,5.887-4.598l6.965-27.857 C305.066,106.336,302.168,102.624,298.22,102.624z"/> <rect x="192.215" y="273.963" style="fill:#FFFFFF;" width="127.569" height="106.313"/> <rect x="255.431" y="273.963" style="fill:#D0D1D3;" width="64.353" height="106.313"/> <path style="fill:#FF450C;" d="M295.591,313.52c0,0-8.678-10.216-21.749,0c-13.071,10.216-27.57,39.215-65.248,25.703 c0,0,14.61,26.364,43.499,17.796C285.48,347.117,310.31,325.384,295.591,313.52z"/> <path style="fill:#D32F09;" d="M295.591,313.52c0,0-8.678-10.216-21.749,0c-5.387,4.21-11.021,11.607-18.415,17.906v24.552 C287.103,345.665,309.815,324.986,295.591,313.52z"/> <path style="fill:#51A448;" d="M283.458,305.645c0.655,0.226,1.348,0.464,2.062,0.71c8.307,2.86,14.615,9.716,16.772,18.234l0,0 c0.777,3.07-2.084,5.854-5.115,4.936c-6.185-1.872-15.977-5.789-17.996-20.044C278.819,306.931,281.024,304.807,283.458,305.645z"/> <path style="fill:#72BD39;" d="M292.626,317.052c-0.453,0-0.903-0.198-1.21-0.578c-0.54-0.667-0.436-1.646,0.231-2.188 c8.295-6.706,8.647-17.175,8.651-17.28c0.021-0.846,0.712-1.519,1.553-1.519c0.012,0,0.024,0,0.036,0 c0.857,0.019,1.538,0.727,1.521,1.586c-0.01,0.486-0.357,11.995-9.804,19.632C293.316,316.94,292.969,317.052,292.626,317.052z"/> </g>
</svg>